# xmcd CD database file
#
# Track frame offsets:
#	183
#	10350
#	26063
#	41558
#	51778
#	68025
#	79978
#	94728
#	109643
#	121845
#	143228
#	155988
#
# Disc length: 2194 seconds
#
# Revision: 0
# Processed by: cddbd v1.4PL0 Copyright (c) Steve Scherf et al.
# Submitted via: Feurio! 1.65.5ß - http://www.feurio.com
#
DISCID=a008900c
DTITLE=Major Dundee - A Night On the Town
DYEAR=1900
DGENRE=
TTITLE0=Out In The Country
TTITLE1=Nobody's Fool
TTITLE2=The Chestnut Tree
TTITLE3=Love By Heart
TTITLE4=Missing You Girl
TTITLE5=Raised On love
TTITLE6=10.04 To Tampa
TTITLE7=A Night On The Town
TTITLE8=I've Been Loved
TTITLE9=Aontoinette
TTITLE10=All The Stories
TTITLE11=I Won't Be Your Clown No More
EXTD=
EXTT0=
EXTT1=
EXTT2=
EXTT3=
EXTT4=
EXTT5=
EXTT6=
EXTT7=
EXTT8=
EXTT9=
EXTT10=
EXTT11=
PLAYORDER=
